# xmcd
#
# Track frame offsets: 
#        150
#        22599
#        40068
#        59407
#        77437
#        98244
#        122327
#        146861
#        167387
#        188862
#        213141
#        235055
#
# Disc length: 3401 seconds
#
# Revision: 1
# Processed by: cddbd v1.5.2PL0 Copyright (c) Steve Scherf et al.
# Submitted via: ExactAudioCopyFreeDBPlugin 1.0
#
DISCID=8b0d470c
DTITLE=古璇 - 璇曲蔓地4
DYEAR=1900
DGENRE=New Age
TTITLE0=情已逝
TTITLE1=水流紅
TTITLE2=人間煙火
TTITLE3=丁香花
TTITLE4=每當變幻時
TTITLE5=蔓珠莎華
TTITLE6=情網
TTITLE7=月亮可以代表我的心
TTITLE8=夜雨
TTITLE9=忘盡心中情
TTITLE10=我會守候你
TTITLE11=花語
EXTD=
EXTT0=
EXTT1=
EXTT2=
EXTT3=
EXTT4=
EXTT5=
EXTT6=
EXTT7=
EXTT8=
EXTT9=
EXTT10=
EXTT11=
PLAYORDER=
